<svg width="160" height="17" viewBox="0 0 160 17" fill="none" xmlns="http://www.w3.org/2000/svg">
<path d="M8.23085 12.7019C5.72374 12.7019 3.7186 10.6968 3.7186 8.18969C3.7186 5.68258 5.72374 3.67744 8.23085 3.67744V0C3.67655 0 0 3.67655 0 8.23085C0 12.7851 3.67655 16.4617 8.23085 16.4617C12.7851 16.4617 16.4617 12.7851 16.4617 8.23085H12.7851C12.7431 10.6959 10.7379 12.7019 8.23085 12.7019Z" fill="#0068FF"/>
<path d="M12.7427 3.67676H8.23047V8.189H12.7427V3.67676Z" fill="#17E6A1"/>
<path d="M44.9463 3.43887C43.8422 2.57275 42.4535 2.05469 40.9441 2.05469C37.3615 2.05469 34.4473 4.9689 34.4473 8.5515C34.4473 12.1341 37.3615 15.0483 40.9441 15.0483C42.4526 15.0483 43.8422 14.5302 44.9463 13.6632V14.9481H47.5894V2.6157H44.9463V3.43977V3.43887ZM40.9441 12.3649C38.8405 12.3649 37.1297 10.6542 37.1297 8.5506C37.1297 6.44704 38.8405 4.73627 40.9441 4.73627C43.0476 4.73627 44.7584 6.44704 44.7584 8.5506C44.7584 10.6542 43.0476 12.3649 40.9441 12.3649Z" fill="#14141E"/>
<path d="M53.6624 0.302734H50.7786V2.61567H49.4258V5.25967H50.7786V11.2187C50.7786 13.333 52.4993 15.0537 54.6136 15.0537H57.0267V12.2227H54.6664C54.1134 12.2227 53.6624 11.7726 53.6624 11.2196V5.25967H57.0276V2.61567H53.6624V0.302734Z" fill="#14141E"/>
<path d="M70.9617 9.582C71.001 9.2921 71.0028 8.99862 71.0028 8.69798C71.0028 5.11002 68.1199 2.20117 64.532 2.20117C60.944 2.20117 58.0352 5.11002 58.0352 8.69798C58.0352 12.2859 60.944 15.1948 64.532 15.1948C67.3379 15.1948 69.7251 13.4133 70.6333 10.9214H67.7003C66.9997 11.9191 65.8437 12.5723 64.532 12.5723C62.6968 12.5723 61.1632 11.2946 60.7624 9.582H68.3007H70.9617ZM60.9798 7.15274C61.5766 5.78198 62.9411 4.8237 64.532 4.8237C66.1228 4.8237 67.4873 5.78287 68.0841 7.15274H60.9798Z" fill="#14141E"/>
<path d="M25.7744 7.22624V9.94093H29.952L29.9207 10.0152C29.2111 11.7188 27.5603 12.8194 25.7162 12.8194C23.2046 12.8194 21.1619 10.7766 21.1619 8.26505C21.1619 5.75348 23.2046 3.71075 25.7162 3.71075C27.1666 3.71075 28.5079 4.39255 29.3668 5.54858H32.6944C31.5787 2.67731 28.8165 0.771484 25.7162 0.771484C21.5842 0.771484 18.2227 4.13308 18.2227 8.26505C18.2227 12.397 21.5842 15.7586 25.7162 15.7586C27.7169 15.7586 29.5959 14.9793 31.0078 13.5638C32.4188 12.1492 33.1955 10.2675 33.1955 8.26505C33.1955 7.89373 33.174 7.55283 33.1284 7.22714H25.7744V7.22624Z" fill="#14141E"/>
<path d="M155.829 4.85055C156.583 4.85055 157.281 5.03592 157.924 5.40664C158.566 5.77737 159.073 6.28403 159.444 6.92662C159.814 7.56921 160 8.27359 160 9.03975V14.8416H158.424V9.29926C158.424 8.75553 158.288 8.25505 158.016 7.79782C157.757 7.34059 157.398 6.98222 156.941 6.72272C156.484 6.45085 155.99 6.31492 155.458 6.31492C154.902 6.31492 154.396 6.46321 153.938 6.75979C153.481 7.05637 153.123 7.45181 152.863 7.94611C152.604 8.42806 152.474 8.94707 152.474 9.50316V14.8416H150.898V1.86621H152.474V6.68564C152.82 6.12956 153.29 5.68469 153.883 5.35103C154.476 5.01738 155.125 4.85055 155.829 4.85055Z" fill="#14141E"/>
<path d="M149.339 12.2836C148.907 13.0992 148.289 13.7542 147.486 14.2485C146.695 14.7428 145.823 14.9899 144.872 14.9899C143.957 14.9899 143.111 14.7613 142.332 14.3041C141.554 13.8469 140.936 13.229 140.479 12.4505C140.022 11.6719 139.793 10.8254 139.793 9.91099C139.793 8.99654 140.022 8.15004 140.479 7.37152C140.936 6.593 141.554 5.9813 142.332 5.53643C143.111 5.0792 143.957 4.85059 144.872 4.85059C145.823 4.85059 146.695 5.09774 147.486 5.59204C148.289 6.07398 148.907 6.72275 149.339 7.53835L147.93 7.96468C147.597 7.44567 147.158 7.03787 146.614 6.74129C146.083 6.44471 145.502 6.29642 144.872 6.29642C144.217 6.29642 143.611 6.45706 143.055 6.77836C142.499 7.09965 142.061 7.53835 141.739 8.09444C141.418 8.65052 141.257 9.25604 141.257 9.91099C141.257 10.5659 141.418 11.1715 141.739 11.7275C142.061 12.2836 142.499 12.7223 143.055 13.0436C143.611 13.3649 144.217 13.5256 144.872 13.5256C145.502 13.5256 146.083 13.3773 146.614 13.0807C147.158 12.7718 147.597 12.364 147.93 11.8573L149.339 12.2836Z" fill="#14141E"/>
<path d="M134.443 6.68568C134.801 6.12959 135.277 5.68472 135.87 5.35107C136.463 5.01741 137.106 4.85059 137.798 4.85059C138.255 4.85059 138.706 4.94327 139.151 5.12863L138.335 6.53739C138.064 6.3891 137.761 6.31495 137.427 6.31495C136.883 6.31495 136.383 6.46324 135.926 6.75982C135.468 7.0564 135.104 7.45184 134.832 7.94614C134.573 8.42809 134.443 8.9471 134.443 9.50319V14.8416H132.867V5.01741H134.443V6.68568Z" fill="#14141E"/>
<path d="M130.784 4.99888V14.8231H129.208V12.988C128.813 13.5935 128.288 14.0817 127.633 14.4524C126.978 14.8107 126.267 14.9899 125.501 14.9899C124.611 14.9899 123.789 14.7613 123.036 14.3041C122.282 13.8469 121.682 13.229 121.238 12.4505C120.793 11.6719 120.57 10.8254 120.57 9.91099C120.57 8.99654 120.793 8.15004 121.238 7.37152C121.682 6.593 122.282 5.9813 123.036 5.53643C123.789 5.0792 124.611 4.85059 125.501 4.85059C126.267 4.85059 126.978 5.02977 127.633 5.38814C128.288 5.74651 128.813 6.22845 129.208 6.83397V4.99888H130.784ZM125.649 13.5441C126.304 13.5441 126.91 13.3835 127.466 13.0622C128.022 12.7285 128.461 12.2898 128.782 11.7461C129.103 11.19 129.264 10.5845 129.264 9.92953C129.264 9.27458 129.097 8.66906 128.763 8.11297C128.442 7.55688 128.003 7.11819 127.447 6.7969C126.904 6.46324 126.304 6.29642 125.649 6.29642C124.994 6.29642 124.389 6.46324 123.833 6.7969C123.277 7.11819 122.838 7.55688 122.517 8.11297C122.195 8.66906 122.035 9.27458 122.035 9.92953C122.035 10.5721 122.195 11.1776 122.517 11.7461C122.838 12.3022 123.277 12.7409 123.833 13.0622C124.389 13.3835 124.994 13.5441 125.649 13.5441Z" fill="#14141E"/>
<path d="M114.263 4.85059C115.177 4.85059 116.023 5.0792 116.802 5.53643C117.581 5.9813 118.192 6.593 118.637 7.37152C119.094 8.15004 119.323 8.99654 119.323 9.91099C119.323 10.084 119.311 10.2755 119.286 10.4856H110.741C110.802 11.0417 110.988 11.5545 111.297 12.0241C111.618 12.5184 112.051 12.9077 112.594 13.1919C113.113 13.4514 113.669 13.5812 114.263 13.5812C114.93 13.5812 115.572 13.4143 116.19 13.0807C116.709 12.7965 117.136 12.4319 117.469 11.9871L118.878 12.3207C118.507 13.0869 117.902 13.7171 117.062 14.2114C116.172 14.7304 115.239 14.9899 114.263 14.9899C113.348 14.9899 112.502 14.7613 111.723 14.3041C110.945 13.8469 110.327 13.229 109.869 12.4505C109.412 11.6719 109.184 10.8254 109.184 9.91099C109.184 8.99654 109.412 8.15004 109.869 7.37152C110.327 6.593 110.945 5.9813 111.723 5.53643C112.502 5.0792 113.348 4.85059 114.263 4.85059ZM114.263 6.29642C113.682 6.29642 113.138 6.42617 112.631 6.68568C112.137 6.94519 111.723 7.30355 111.389 7.76078C111.056 8.20565 110.846 8.69995 110.759 9.24369H117.766C117.679 8.69995 117.469 8.20565 117.136 7.76078C116.802 7.30355 116.382 6.94519 115.875 6.68568C115.381 6.42617 114.843 6.29642 114.263 6.29642Z" fill="#14141E"/>
<path d="M106.912 7.20469C106.467 6.90811 106.04 6.69186 105.633 6.55592C105.002 6.33349 104.391 6.22227 103.798 6.22227C103.204 6.22227 102.698 6.33349 102.278 6.55592C101.993 6.69186 101.783 6.86486 101.647 7.07494C101.524 7.27266 101.462 7.48274 101.462 7.70517C101.462 8.11297 101.666 8.41573 102.074 8.61345C102.444 8.78646 103.112 8.97182 104.076 9.16954C104.768 9.30547 105.367 9.46612 105.874 9.65148C106.393 9.83685 106.819 10.084 107.153 10.3929C107.696 10.8625 107.968 11.4619 107.968 12.191C107.968 12.9077 107.721 13.47 107.227 13.8778C106.98 14.1125 106.683 14.3226 106.337 14.508C105.707 14.8293 104.972 14.9899 104.131 14.9899C103.39 14.9899 102.648 14.8602 101.907 14.6007C101.524 14.4524 101.104 14.2547 100.646 14.0075C100.202 13.748 99.837 13.4947 99.5527 13.2475L100.239 12.0612C100.659 12.4443 101.19 12.7841 101.833 13.0807C102.611 13.4267 103.377 13.5997 104.131 13.5997C104.663 13.5997 105.138 13.4823 105.558 13.2475C105.818 13.1239 106.016 12.9695 106.152 12.7841C106.288 12.5988 106.356 12.3887 106.356 12.1539C106.356 11.7461 106.145 11.4124 105.725 11.1529C105.243 10.8687 104.527 10.6339 103.575 10.4485C102.29 10.2014 101.345 9.87392 100.739 9.46612C100.146 9.04596 99.8493 8.45898 99.8493 7.70517C99.8493 7.16144 99.9914 6.68568 100.276 6.27788C100.548 5.8948 100.924 5.59822 101.406 5.38814C102.086 5.02977 102.883 4.85059 103.798 4.85059C104.539 4.85059 105.237 4.9618 105.892 5.18424C106.559 5.39432 107.134 5.66618 107.616 5.99984L106.912 7.20469Z" fill="#14141E"/>
<path d="M93.2293 4.85059C94.1438 4.85059 94.9903 5.0792 95.7688 5.53643C96.5473 5.9813 97.159 6.593 97.6039 7.37152C98.0611 8.15004 98.2897 8.99654 98.2897 9.91099C98.2897 10.084 98.2774 10.2755 98.2527 10.4856H89.7074C89.7692 11.0417 89.9546 11.5545 90.2635 12.0241C90.5848 12.5184 91.0173 12.9077 91.5611 13.1919C92.0801 13.4514 92.6362 13.5812 93.2293 13.5812C93.8966 13.5812 94.5392 13.4143 95.1571 13.0807C95.6761 12.7965 96.1025 12.4319 96.4361 11.9871L97.8449 12.3207C97.4741 13.0869 96.8686 13.7171 96.0283 14.2114C95.1386 14.7304 94.2056 14.9899 93.2293 14.9899C92.3149 14.9899 91.4684 14.7613 90.6899 14.3041C89.9113 13.8469 89.2935 13.229 88.8362 12.4505C88.379 11.6719 88.1504 10.8254 88.1504 9.91099C88.1504 8.99654 88.379 8.15004 88.8362 7.37152C89.2935 6.593 89.9113 5.9813 90.6899 5.53643C91.4684 5.0792 92.3149 4.85059 93.2293 4.85059ZM93.2293 6.29642C92.6485 6.29642 92.1048 6.42617 91.5981 6.68568C91.1038 6.94519 90.6899 7.30355 90.3562 7.76078C90.0226 8.20565 89.8125 8.69995 89.726 9.24369H96.7327C96.6462 8.69995 96.4361 8.20565 96.1025 7.76078C95.7688 7.30355 95.3486 6.94519 94.842 6.68568C94.3477 6.42617 93.8101 6.29642 93.2293 6.29642Z" fill="#14141E"/>
<path d="M82.3007 9.96657H78.9456V14.8416H77.3145V1.86621H82.9495C83.6662 1.86621 84.3273 2.02068 84.9329 2.32962C85.489 2.6262 85.94 3.02782 86.286 3.53448C86.8174 4.23886 87.0831 5.04827 87.0831 5.96273C87.0831 6.79068 86.8606 7.50124 86.4158 8.0944C86.1439 8.51456 85.8102 8.87293 85.4148 9.16951C85.007 9.45373 84.556 9.66381 84.0617 9.79974L87.2314 14.8416H85.3777L82.3007 9.96657ZM82.7641 8.53927C83.5426 8.53927 84.1976 8.30448 84.729 7.83489C85.248 7.35295 85.5075 6.71654 85.5075 5.92566C85.5075 5.19656 85.2789 4.57869 84.8216 4.07203C84.3644 3.57773 83.7404 3.33058 82.9495 3.33058H78.9456V8.53927H82.7641Z" fill="#14141E"/>
</svg>
